<svg width="13" height="13" viewBox="0 0 13 13" fill="none" xmlns="http://www.w3.org/2000/svg">
<path d="M5.824 12.288C5.70667 11.5947 5.39733 10.848 4.896 10.048C4.39467 9.23733 3.68 8.48533 2.752 7.792C1.83467 7.09867 0.917333 6.656 0 6.464V5.792C0.906667 5.57867 1.776 5.184 2.608 4.608C3.45067 4.02133 4.15467 3.31733 4.72 2.496C5.296 1.65333 5.664 0.821333 5.824 0H6.496C6.592 0.533333 6.784 1.08267 7.072 1.648C7.36 2.20267 7.728 2.736 8.176 3.248C8.63467 3.74933 9.14667 4.20267 9.712 4.608C10.5547 5.20533 11.4133 5.6 12.288 5.792V6.464C11.7013 6.58133 11.0933 6.82133 10.464 7.184C9.84533 7.54667 9.26933 7.97867 8.736 8.48C8.20267 8.97067 7.76533 9.488 7.424 10.032C6.92267 10.832 6.61333 11.584 6.496 12.288H5.824Z" fill="black"/>
</svg>
